<?xml version="1.0" encoding="UTF-8"?><svg id="uuid-862cdc06-dc92-48f7-a7af-78b639e84db5" xmlns="http://www.w3.org/2000/svg" viewBox="0 0 128 128"><defs><style>.uuid-24466816-2338-4e2b-896a-9642b1397f14{fill:#fff;}.uuid-5df04f35-da35-48de-92eb-b4d15da1f1ac{fill:#106f99;}</style></defs><rect class="uuid-5df04f35-da35-48de-92eb-b4d15da1f1ac" width="128" height="128"/><path class="uuid-24466816-2338-4e2b-896a-9642b1397f14" d="m45.55,102.95l5.54-5.49,15.62,15.62-2.71.12c-25.79,0-46.91-19.85-49-45.1h6.15c1.48,15.42,11.07,28.46,24.4,34.85M82.45,25.05l-5.54,5.49-15.62-15.62,2.71-.12c25.79,0,46.91,19.85,49,45.1h-6.15c-1.48-15.42-11.07-28.42-24.4-34.85"/><path class="uuid-24466816-2338-4e2b-896a-9642b1397f14" d="m34.52,44.71l-.15,2.19.15,2.19h22.48l-1.86,4.37h-19.31c2.47,5.16,7.74,8.75,13.84,8.75,4.88,0,9.23-2.27,12.03-5.84v6.1c-3.28,2.58-7.5,4.11-12.03,4.11-8.57,0-15.85-5.47-18.58-13.12h-7.65l2.19-4.37h4.48l-.11-2.19.11-2.19h-6.67l2.19-4.37h5.47c2.73-7.65,10.01-13.12,18.58-13.12,5.47,0,10.49,2.27,14.06,5.93l-1.88,4.46c-2.8-3.65-7.22-6.01-12.18-6.01-6.1,0-11.37,3.59-13.84,8.75h24.86l-1.86,4.37h-24.31Z"/><path class="uuid-24466816-2338-4e2b-896a-9642b1397f14" d="m66.66,75.25h7.67v12.26h.09c.6-1.07,1.24-2.14,1.89-3.17l5.53-9.09h9.52l-9.18,12.31,9.52,16.59h-8.96l-6.09-11.71-2.32,2.96v8.75h-7.67v-28.9Z"/><path class="uuid-24466816-2338-4e2b-896a-9642b1397f14" d="m109.19,103.72c-1.29.56-3.47.86-5.83.86-6.99,0-11.41-4.07-11.41-10.8,0-6,4.12-11.19,12.35-11.19,1.54,0,3.39.21,4.89.73l-1.11,5.7c-.73-.3-1.76-.56-3.3-.56-2.92,0-4.93,1.97-4.93,5.06,0,3.43,2.4,5.06,5.1,5.06,1.33,0,2.44-.13,3.39-.51l.86,5.66Zm-9.48-23.15l-4.33-6.69h4.84l2.02,3.6h.08l2.02-3.6h4.89l-4.37,6.69h-5.15Z"/></svg>